<mxfile host="app.diagrams.net" agent="Mozilla/5.0 (Windows NT 10.0; Win64; x64) AppleWebKit/537.36 (KHTML, like Gecko) Chrome/131.0.0.0 Safari/537.36" version="25.0.3">
  <diagram name="หน้า-1" id="zKWEHPKxsRrzMmOQt4gc">
    <mxGraphModel dx="1622" dy="343" grid="1" gridSize="10" guides="1" tooltips="1" connect="1" arrows="1" fold="1" page="1" pageScale="1" pageWidth="827" pageHeight="1169" math="0" shadow="0">
      <root>
        <mxCell id="0" />
        <mxCell id="1" parent="0" />
        <mxCell id="BIB8ikMbAPBFWskUdiUE-3" value="" style="edgeStyle=orthogonalEdgeStyle;rounded=0;orthogonalLoop=1;jettySize=auto;html=1;" edge="1" parent="1" source="BIB8ikMbAPBFWskUdiUE-1" target="BIB8ikMbAPBFWskUdiUE-2">
          <mxGeometry relative="1" as="geometry" />
        </mxCell>
        <mxCell id="BIB8ikMbAPBFWskUdiUE-1" value="start&amp;nbsp;" style="strokeWidth=2;html=1;shape=mxgraph.flowchart.start_1;whiteSpace=wrap;" vertex="1" parent="1">
          <mxGeometry x="364" y="60" width="100" height="60" as="geometry" />
        </mxCell>
        <mxCell id="BIB8ikMbAPBFWskUdiUE-5" value="" style="edgeStyle=orthogonalEdgeStyle;rounded=0;orthogonalLoop=1;jettySize=auto;html=1;" edge="1" parent="1" source="BIB8ikMbAPBFWskUdiUE-2" target="BIB8ikMbAPBFWskUdiUE-4">
          <mxGeometry relative="1" as="geometry" />
        </mxCell>
        <mxCell id="BIB8ikMbAPBFWskUdiUE-2" value="void factorial_Series int ( n )" style="strokeWidth=2;html=1;shape=mxgraph.flowchart.terminator;whiteSpace=wrap;" vertex="1" parent="1">
          <mxGeometry x="317" y="180" width="194" height="90" as="geometry" />
        </mxCell>
        <mxCell id="BIB8ikMbAPBFWskUdiUE-7" value="" style="edgeStyle=orthogonalEdgeStyle;rounded=0;orthogonalLoop=1;jettySize=auto;html=1;" edge="1" parent="1" source="BIB8ikMbAPBFWskUdiUE-4" target="BIB8ikMbAPBFWskUdiUE-6">
          <mxGeometry relative="1" as="geometry" />
        </mxCell>
        <mxCell id="BIB8ikMbAPBFWskUdiUE-10" value="" style="edgeStyle=orthogonalEdgeStyle;rounded=0;orthogonalLoop=1;jettySize=auto;html=1;" edge="1" parent="1" source="BIB8ikMbAPBFWskUdiUE-4" target="BIB8ikMbAPBFWskUdiUE-9">
          <mxGeometry relative="1" as="geometry" />
        </mxCell>
        <mxCell id="BIB8ikMbAPBFWskUdiUE-4" value="n == 1" style="rhombus;whiteSpace=wrap;html=1;strokeWidth=2;" vertex="1" parent="1">
          <mxGeometry x="374" y="355" width="80" height="80" as="geometry" />
        </mxCell>
        <mxCell id="BIB8ikMbAPBFWskUdiUE-30" style="edgeStyle=orthogonalEdgeStyle;rounded=0;orthogonalLoop=1;jettySize=auto;html=1;exitX=0.5;exitY=1;exitDx=0;exitDy=0;entryX=0.008;entryY=0.542;entryDx=0;entryDy=0;entryPerimeter=0;" edge="1" parent="1" source="BIB8ikMbAPBFWskUdiUE-6" target="BIB8ikMbAPBFWskUdiUE-31">
          <mxGeometry relative="1" as="geometry">
            <mxPoint x="314" y="1859.96" as="targetPoint" />
            <mxPoint x="214" y="979.96" as="sourcePoint" />
            <Array as="points">
              <mxPoint x="304" y="860" />
              <mxPoint x="-20" y="860" />
              <mxPoint x="-20" y="1680" />
            </Array>
          </mxGeometry>
        </mxCell>
        <mxCell id="BIB8ikMbAPBFWskUdiUE-6" value="printf ( &quot; 1 &quot; )" style="shape=parallelogram;perimeter=parallelogramPerimeter;whiteSpace=wrap;html=1;fixedSize=1;strokeWidth=2;" vertex="1" parent="1">
          <mxGeometry x="244" y="740" width="120" height="60" as="geometry" />
        </mxCell>
        <mxCell id="BIB8ikMbAPBFWskUdiUE-8" value="T" style="text;html=1;align=center;verticalAlign=middle;resizable=0;points=[];autosize=1;strokeColor=none;fillColor=none;" vertex="1" parent="1">
          <mxGeometry x="334" y="355" width="30" height="30" as="geometry" />
        </mxCell>
        <mxCell id="BIB8ikMbAPBFWskUdiUE-13" value="" style="edgeStyle=orthogonalEdgeStyle;rounded=0;orthogonalLoop=1;jettySize=auto;html=1;" edge="1" parent="1" source="BIB8ikMbAPBFWskUdiUE-9" target="BIB8ikMbAPBFWskUdiUE-12">
          <mxGeometry relative="1" as="geometry" />
        </mxCell>
        <mxCell id="BIB8ikMbAPBFWskUdiUE-9" value="printf(&amp;nbsp; &quot; %d x &quot;, n )" style="shape=parallelogram;perimeter=parallelogramPerimeter;whiteSpace=wrap;html=1;fixedSize=1;strokeWidth=2;" vertex="1" parent="1">
          <mxGeometry x="514" y="365" width="166" height="60" as="geometry" />
        </mxCell>
        <mxCell id="BIB8ikMbAPBFWskUdiUE-11" value="F" style="text;html=1;align=center;verticalAlign=middle;resizable=0;points=[];autosize=1;strokeColor=none;fillColor=none;" vertex="1" parent="1">
          <mxGeometry x="455" y="348" width="30" height="30" as="geometry" />
        </mxCell>
        <mxCell id="BIB8ikMbAPBFWskUdiUE-15" value="" style="edgeStyle=orthogonalEdgeStyle;rounded=0;orthogonalLoop=1;jettySize=auto;html=1;" edge="1" parent="1" source="BIB8ikMbAPBFWskUdiUE-12" target="BIB8ikMbAPBFWskUdiUE-14">
          <mxGeometry relative="1" as="geometry" />
        </mxCell>
        <mxCell id="BIB8ikMbAPBFWskUdiUE-12" value="factorial_Series( n - 1 )" style="whiteSpace=wrap;html=1;strokeWidth=2;" vertex="1" parent="1">
          <mxGeometry x="525.5" y="505" width="143" height="60" as="geometry" />
        </mxCell>
        <mxCell id="BIB8ikMbAPBFWskUdiUE-17" value="" style="edgeStyle=orthogonalEdgeStyle;rounded=0;orthogonalLoop=1;jettySize=auto;html=1;" edge="1" parent="1" source="BIB8ikMbAPBFWskUdiUE-14" target="BIB8ikMbAPBFWskUdiUE-16">
          <mxGeometry relative="1" as="geometry" />
        </mxCell>
        <mxCell id="BIB8ikMbAPBFWskUdiUE-14" value="int n" style="whiteSpace=wrap;html=1;strokeWidth=2;" vertex="1" parent="1">
          <mxGeometry x="537" y="645" width="120" height="60" as="geometry" />
        </mxCell>
        <mxCell id="BIB8ikMbAPBFWskUdiUE-19" value="" style="edgeStyle=orthogonalEdgeStyle;rounded=0;orthogonalLoop=1;jettySize=auto;html=1;" edge="1" parent="1" source="BIB8ikMbAPBFWskUdiUE-16" target="BIB8ikMbAPBFWskUdiUE-18">
          <mxGeometry relative="1" as="geometry" />
        </mxCell>
        <mxCell id="BIB8ikMbAPBFWskUdiUE-16" value="รับค่าจากผู้ใช้" style="shape=parallelogram;perimeter=parallelogramPerimeter;whiteSpace=wrap;html=1;fixedSize=1;strokeWidth=2;" vertex="1" parent="1">
          <mxGeometry x="537" y="785" width="120" height="60" as="geometry" />
        </mxCell>
        <mxCell id="BIB8ikMbAPBFWskUdiUE-21" value="" style="edgeStyle=orthogonalEdgeStyle;rounded=0;orthogonalLoop=1;jettySize=auto;html=1;" edge="1" parent="1" source="BIB8ikMbAPBFWskUdiUE-18" target="BIB8ikMbAPBFWskUdiUE-20">
          <mxGeometry relative="1" as="geometry" />
        </mxCell>
        <mxCell id="BIB8ikMbAPBFWskUdiUE-18" value="แสดงตัวเลขที่ผู้ใช้กรอก" style="shape=parallelogram;perimeter=parallelogramPerimeter;whiteSpace=wrap;html=1;fixedSize=1;strokeWidth=2;" vertex="1" parent="1">
          <mxGeometry x="505.5" y="930" width="183" height="60" as="geometry" />
        </mxCell>
        <mxCell id="BIB8ikMbAPBFWskUdiUE-23" value="" style="edgeStyle=orthogonalEdgeStyle;rounded=0;orthogonalLoop=1;jettySize=auto;html=1;" edge="1" parent="1" source="BIB8ikMbAPBFWskUdiUE-20" target="BIB8ikMbAPBFWskUdiUE-22">
          <mxGeometry relative="1" as="geometry" />
        </mxCell>
        <mxCell id="BIB8ikMbAPBFWskUdiUE-20" value="factorial_Series( n )" style="whiteSpace=wrap;html=1;strokeWidth=2;" vertex="1" parent="1">
          <mxGeometry x="537" y="1070" width="120" height="60" as="geometry" />
        </mxCell>
        <mxCell id="BIB8ikMbAPBFWskUdiUE-25" value="" style="edgeStyle=orthogonalEdgeStyle;rounded=0;orthogonalLoop=1;jettySize=auto;html=1;" edge="1" parent="1" source="BIB8ikMbAPBFWskUdiUE-22" target="BIB8ikMbAPBFWskUdiUE-24">
          <mxGeometry relative="1" as="geometry" />
        </mxCell>
        <mxCell id="BIB8ikMbAPBFWskUdiUE-22" value="เว้นบรรทัด" style="shape=parallelogram;perimeter=parallelogramPerimeter;whiteSpace=wrap;html=1;fixedSize=1;strokeWidth=2;" vertex="1" parent="1">
          <mxGeometry x="537" y="1210" width="120" height="60" as="geometry" />
        </mxCell>
        <mxCell id="BIB8ikMbAPBFWskUdiUE-27" value="" style="edgeStyle=orthogonalEdgeStyle;rounded=0;orthogonalLoop=1;jettySize=auto;html=1;" edge="1" parent="1" source="BIB8ikMbAPBFWskUdiUE-24" target="BIB8ikMbAPBFWskUdiUE-26">
          <mxGeometry relative="1" as="geometry" />
        </mxCell>
        <mxCell id="BIB8ikMbAPBFWskUdiUE-24" value="int result = factorial (n )" style="whiteSpace=wrap;html=1;strokeWidth=2;" vertex="1" parent="1">
          <mxGeometry x="520.5" y="1350" width="153" height="60" as="geometry" />
        </mxCell>
        <mxCell id="BIB8ikMbAPBFWskUdiUE-26" value="แสดงผลลัพธ์" style="shape=parallelogram;perimeter=parallelogramPerimeter;whiteSpace=wrap;html=1;fixedSize=1;strokeWidth=2;" vertex="1" parent="1">
          <mxGeometry x="537" y="1490" width="120" height="60" as="geometry" />
        </mxCell>
        <mxCell id="BIB8ikMbAPBFWskUdiUE-28" value="end" style="strokeWidth=2;html=1;shape=mxgraph.flowchart.start_1;whiteSpace=wrap;" vertex="1" parent="1">
          <mxGeometry x="354" y="1760" width="100" height="60" as="geometry" />
        </mxCell>
        <mxCell id="BIB8ikMbAPBFWskUdiUE-32" value="" style="edgeStyle=orthogonalEdgeStyle;rounded=0;orthogonalLoop=1;jettySize=auto;html=1;" edge="1" parent="1" source="BIB8ikMbAPBFWskUdiUE-26" target="BIB8ikMbAPBFWskUdiUE-31">
          <mxGeometry relative="1" as="geometry">
            <mxPoint x="597" y="1550" as="sourcePoint" />
            <mxPoint x="404" y="1760" as="targetPoint" />
            <Array as="points">
              <mxPoint x="590" y="1680" />
            </Array>
          </mxGeometry>
        </mxCell>
        <mxCell id="BIB8ikMbAPBFWskUdiUE-33" value="" style="edgeStyle=orthogonalEdgeStyle;rounded=0;orthogonalLoop=1;jettySize=auto;html=1;" edge="1" parent="1" source="BIB8ikMbAPBFWskUdiUE-31" target="BIB8ikMbAPBFWskUdiUE-28">
          <mxGeometry relative="1" as="geometry" />
        </mxCell>
        <mxCell id="BIB8ikMbAPBFWskUdiUE-31" value="" style="shape=waypoint;sketch=0;fillStyle=solid;size=6;pointerEvents=1;points=[];fillColor=none;resizable=0;rotatable=0;perimeter=centerPerimeter;snapToPoint=1;" vertex="1" parent="1">
          <mxGeometry x="394" y="1670" width="20" height="20" as="geometry" />
        </mxCell>
        <mxCell id="BIB8ikMbAPBFWskUdiUE-36" value="" style="edgeStyle=orthogonalEdgeStyle;rounded=0;orthogonalLoop=1;jettySize=auto;html=1;" edge="1" parent="1" source="BIB8ikMbAPBFWskUdiUE-34" target="BIB8ikMbAPBFWskUdiUE-35">
          <mxGeometry relative="1" as="geometry" />
        </mxCell>
        <mxCell id="BIB8ikMbAPBFWskUdiUE-34" value="int factorial ( int n )" style="strokeWidth=2;html=1;shape=mxgraph.flowchart.terminator;whiteSpace=wrap;" vertex="1" parent="1">
          <mxGeometry x="60" y="70" width="120" height="60" as="geometry" />
        </mxCell>
        <mxCell id="BIB8ikMbAPBFWskUdiUE-38" value="" style="edgeStyle=orthogonalEdgeStyle;rounded=0;orthogonalLoop=1;jettySize=auto;html=1;" edge="1" parent="1" source="BIB8ikMbAPBFWskUdiUE-35" target="BIB8ikMbAPBFWskUdiUE-37">
          <mxGeometry relative="1" as="geometry" />
        </mxCell>
        <mxCell id="BIB8ikMbAPBFWskUdiUE-40" value="" style="edgeStyle=orthogonalEdgeStyle;rounded=0;orthogonalLoop=1;jettySize=auto;html=1;" edge="1" parent="1" source="BIB8ikMbAPBFWskUdiUE-35" target="BIB8ikMbAPBFWskUdiUE-39">
          <mxGeometry relative="1" as="geometry" />
        </mxCell>
        <mxCell id="BIB8ikMbAPBFWskUdiUE-35" value="n == 1" style="rhombus;whiteSpace=wrap;html=1;strokeWidth=2;" vertex="1" parent="1">
          <mxGeometry x="80" y="200" width="80" height="80" as="geometry" />
        </mxCell>
        <mxCell id="BIB8ikMbAPBFWskUdiUE-37" value="คืนค่า 1&amp;nbsp;" style="whiteSpace=wrap;html=1;strokeWidth=2;" vertex="1" parent="1">
          <mxGeometry x="-150" y="288" width="120" height="60" as="geometry" />
        </mxCell>
        <mxCell id="BIB8ikMbAPBFWskUdiUE-39" value="n factorial ( n - 1 )" style="whiteSpace=wrap;html=1;strokeWidth=2;" vertex="1" parent="1">
          <mxGeometry x="60" y="340" width="120" height="60" as="geometry" />
        </mxCell>
        <mxCell id="BIB8ikMbAPBFWskUdiUE-41" value="F" style="text;html=1;align=center;verticalAlign=middle;resizable=0;points=[];autosize=1;strokeColor=none;fillColor=none;" vertex="1" parent="1">
          <mxGeometry x="135" y="278" width="30" height="30" as="geometry" />
        </mxCell>
        <mxCell id="BIB8ikMbAPBFWskUdiUE-42" value="T" style="text;html=1;align=center;verticalAlign=middle;resizable=0;points=[];autosize=1;strokeColor=none;fillColor=none;" vertex="1" parent="1">
          <mxGeometry x="35" y="198" width="30" height="30" as="geometry" />
        </mxCell>
      </root>
    </mxGraphModel>
  </diagram>
</mxfile>
